#Comment line ignore any data following # character 
#Hierarchical Translation and Rotation (.htr) file 
[Header]	
#Header keywords are followed by a single value 
FileType HTR		#Single word string
DataType HTRS		#Translation followed by rotation and scale data
FileVersion 1		#integer
NumSegments 84		#integer
NumFrames 2		#integer
DataFrameRate 30		#integer, data frame rate in this file
EulerRotationOrder ZYX
CalibrationUnits mm
RotationUnits Degrees
GlobalAxisofGravity Y
BoneLengthAxis Y
ScaleFactor 1.00
[SegmentNames&Hierarchy]
#CHILD	PARENT
MASTER GLOBAL
root MASTER
chest root
L_mid_tent01 root
R_mid_tent01 root
spine01 root
Bip01_Neck chest
L_humerus chest
R_humerus chest
weapon_bone chest
Bip01_Head Bip01_Neck
eye_left_bone Bip01_Head
eye_right_bone Bip01_Head
L_forearm L_humerus
L_front_hand L_forearm
L_weapon_bone L_forearm
L_front_hand01_01 L_front_hand
L_front_hand02_01 L_front_hand
L_front_hand03_01 L_front_hand
L_front_hand01_02 L_front_hand01_01
L_front_hand02_02 L_front_hand02_01
L_front_hand03_02 L_front_hand03_01
R_forearm R_humerus
R_front_hand R_forearm
R_weapon_bone R_forearm
R_front_hand01_01 R_front_hand
R_front_hand02_01 R_front_hand
R_front_hand03_01 R_front_hand
R_front_hand01_02 R_front_hand01_01
R_front_hand02_02 R_front_hand02_01
R_front_hand03_02 R_front_hand03_01
null_rope01_connect L_mid_tent01
Rope1_Seg01 null_rope01_connect
Rope1_Seg02 Rope1_Seg01
Rope1_Seg03 Rope1_Seg02
Rope1_Seg04 Rope1_Seg03
Rope1_Seg05 Rope1_Seg04
Rope1_Seg06 Rope1_Seg05
Rope1_Seg07 Rope1_Seg06
Rope1_Seg09 Rope1_Seg07
L_mid_hand01 Rope1_Seg09
L_mid_hand02 Rope1_Seg09
L_mid_hand03 Rope1_Seg09
null_rope02_connect R_mid_tent01
Rope2_Seg01 null_rope02_connect
Rope2_Seg02 Rope2_Seg01
Rope2_Seg03 Rope2_Seg02
Rope2_Seg04 Rope2_Seg03
Rope2_Seg05 Rope2_Seg04
Rope2_Seg06 Rope2_Seg05
Rope2_Seg07 Rope2_Seg06
Rope2_Seg09 Rope2_Seg07
R_mid_hand01 Rope2_Seg09
R_mid_hand02 Rope2_Seg09
R_mid_hand03 Rope2_Seg09
spine02 spine01
spine03 spine02
pelvis spine03
null_rope03_connect pelvis
null_rope04_connect pelvis
Rope3_Seg01 null_rope03_connect
Rope3_Seg02 Rope3_Seg01
Rope3_Seg03 Rope3_Seg02
Rope3_Seg04 Rope3_Seg03
Rope3_Seg05 Rope3_Seg04
Rope3_Seg06 Rope3_Seg05
Rope3_Seg07 Rope3_Seg06
Rope3_Seg08 Rope3_Seg07
Rope3_Seg09 Rope3_Seg08
R_rear_hand01 Rope3_Seg09
R_rear_hand02 Rope3_Seg09
R_rear_hand03 Rope3_Seg09
Rope4_Seg01 null_rope04_connect
Rope4_Seg02 Rope4_Seg01
Rope4_Seg03 Rope4_Seg02
Rope4_Seg04 Rope4_Seg03
Rope4_Seg05 Rope4_Seg04
Rope4_Seg06 Rope4_Seg05
Rope4_Seg07 Rope4_Seg06
Rope4_Seg08 Rope4_Seg07
Rope4_Seg09 Rope4_Seg08
L_rear_hand01 Rope4_Seg09
L_rear_hand02 Rope4_Seg09
L_rear_hand03 Rope4_Seg09
[BasePosition]
#SegmentName Tx, Ty, Tz, Rx, Ry, Rz, BoneLength
MASTER 0.000000 0.000000 0.000000 -90.000000 0.000000 0.000000 10.000000 
root 0.000000 0.000000 0.000000 0.000000 0.000000 0.000000 10.000000 
chest 0.000000 0.000000 0.000000 0.000000 0.000000 0.000000 10.000000 
L_mid_tent01 0.000000 0.000000 0.000000 0.000000 0.000000 0.000000 10.000000 
R_mid_tent01 0.000000 0.000000 0.000000 0.000000 0.000000 0.000000 10.000000 
spine01 0.000000 0.000000 0.000000 0.000000 0.000000 0.000000 10.000000 
Bip01_Neck 0.000000 0.000000 0.000000 0.000000 0.000000 0.000000 10.000000 
L_humerus 0.000000 0.000000 0.000000 0.000000 0.000000 0.000000 10.000000 
R_humerus 0.000000 0.000000 0.000000 0.000000 0.000000 0.000000 10.000000 
weapon_bone 0.000000 0.000000 0.000000 0.000000 0.000000 0.000000 10.000000 
Bip01_Head 0.000000 0.000000 0.000000 0.000000 0.000000 0.000000 10.000000 
eye_left_bone 0.000000 0.000000 0.000000 0.000000 0.000000 0.000000 10.000000 
eye_right_bone 0.000000 0.000000 0.000000 0.000000 0.000000 0.000000 10.000000 
L_forearm 0.000000 0.000000 0.000000 0.000000 0.000000 0.000000 10.000000 
L_front_hand 0.000000 0.000000 0.000000 0.000000 0.000000 0.000000 10.000000 
L_weapon_bone 0.000000 0.000000 0.000000 0.000000 0.000000 0.000000 10.000000 
L_front_hand01_01 0.000000 0.000000 0.000000 0.000000 0.000000 0.000000 10.000000 
L_front_hand02_01 0.000000 0.000000 0.000000 0.000000 0.000000 0.000000 10.000000 
L_front_hand03_01 0.000000 0.000000 0.000000 0.000000 0.000000 0.000000 10.000000 
L_front_hand01_02 0.000000 0.000000 0.000000 0.000000 0.000000 0.000000 10.000000 
L_front_hand02_02 0.000000 0.000000 0.000000 0.000000 0.000000 0.000000 10.000000 
L_front_hand03_02 0.000000 0.000000 0.000000 0.000000 0.000000 0.000000 10.000000 
R_forearm 0.000000 0.000000 0.000000 0.000000 0.000000 0.000000 10.000000 
R_front_hand 0.000000 0.000000 0.000000 0.000000 0.000000 0.000000 10.000000 
R_weapon_bone 0.000000 0.000000 0.000000 0.000000 0.000000 0.000000 10.000000 
R_front_hand01_01 0.000000 0.000000 0.000000 0.000000 0.000000 0.000000 10.000000 
R_front_hand02_01 0.000000 0.000000 0.000000 0.000000 0.000000 0.000000 10.000000 
R_front_hand03_01 0.000000 0.000000 0.000000 0.000000 0.000000 0.000000 10.000000 
R_front_hand01_02 0.000000 0.000000 0.000000 0.000000 0.000000 0.000000 10.000000 
R_front_hand02_02 0.000000 0.000000 0.000000 0.000000 0.000000 0.000000 10.000000 
R_front_hand03_02 0.000000 0.000000 0.000000 0.000000 0.000000 0.000000 10.000000 
null_rope01_connect 0.000000 0.000000 0.000000 0.000000 0.000000 0.000000 10.000000 
Rope1_Seg01 0.000000 0.000000 0.000000 0.000000 0.000000 0.000000 10.000000 
Rope1_Seg02 0.000000 0.000000 0.000000 0.000000 0.000000 0.000000 10.000000 
Rope1_Seg03 0.000000 0.000000 0.000000 0.000000 0.000000 0.000000 10.000000 
Rope1_Seg04 0.000000 0.000000 0.000000 0.000000 0.000000 0.000000 10.000000 
Rope1_Seg05 0.000000 0.000000 0.000000 0.000000 0.000000 0.000000 10.000000 
Rope1_Seg06 0.000000 0.000000 0.000000 0.000000 0.000000 0.000000 10.000000 
Rope1_Seg07 0.000000 0.000000 0.000000 0.000000 0.000000 0.000000 10.000000 
Rope1_Seg09 0.000000 0.000000 0.000000 0.000000 0.000000 0.000000 10.000000 
L_mid_hand01 0.000000 0.000000 0.000000 0.000000 0.000000 0.000000 10.000000 
L_mid_hand02 0.000000 0.000000 0.000000 0.000000 0.000000 0.000000 10.000000 
L_mid_hand03 0.000000 0.000000 0.000000 0.000000 0.000000 0.000000 10.000000 
null_rope02_connect 0.000000 0.000000 0.000000 0.000000 0.000000 0.000000 10.000000 
Rope2_Seg01 0.000000 0.000000 0.000000 0.000000 0.000000 0.000000 10.000000 
Rope2_Seg02 0.000000 0.000000 0.000000 0.000000 0.000000 0.000000 10.000000 
Rope2_Seg03 0.000000 0.000000 0.000000 0.000000 0.000000 0.000000 10.000000 
Rope2_Seg04 0.000000 0.000000 0.000000 0.000000 0.000000 0.000000 10.000000 
Rope2_Seg05 0.000000 0.000000 0.000000 0.000000 0.000000 0.000000 10.000000 
Rope2_Seg06 0.000000 0.000000 0.000000 0.000000 0.000000 0.000000 10.000000 
Rope2_Seg07 0.000000 0.000000 0.000000 0.000000 0.000000 0.000000 10.000000 
Rope2_Seg09 0.000000 0.000000 0.000000 0.000000 0.000000 0.000000 10.000000 
R_mid_hand01 0.000000 0.000000 0.000000 0.000000 0.000000 0.000000 10.000000 
R_mid_hand02 0.000000 0.000000 0.000000 0.000000 0.000000 0.000000 10.000000 
R_mid_hand03 0.000000 0.000000 0.000000 0.000000 0.000000 0.000000 10.000000 
spine02 0.000000 0.000000 0.000000 0.000000 0.000000 0.000000 10.000000 
spine03 0.000000 0.000000 0.000000 0.000000 0.000000 0.000000 10.000000 
pelvis 0.000000 0.000000 0.000000 0.000000 0.000000 0.000000 10.000000 
null_rope03_connect 0.000000 0.000000 0.000000 0.000000 0.000000 0.000000 10.000000 
null_rope04_connect 0.000000 0.000000 0.000000 0.000000 0.000000 0.000000 10.000000 
Rope3_Seg01 0.000000 0.000000 0.000000 0.000000 0.000000 0.000000 10.000000 
Rope3_Seg02 0.000000 0.000000 0.000000 0.000000 0.000000 0.000000 10.000000 
Rope3_Seg03 0.000000 0.000000 0.000000 0.000000 0.000000 0.000000 10.000000 
Rope3_Seg04 0.000000 0.000000 0.000000 0.000000 0.000000 0.000000 10.000000 
Rope3_Seg05 0.000000 0.000000 0.000000 0.000000 0.000000 0.000000 10.000000 
Rope3_Seg06 0.000000 0.000000 0.000000 0.000000 0.000000 0.000000 10.000000 
Rope3_Seg07 0.000000 0.000000 0.000000 0.000000 0.000000 0.000000 10.000000 
Rope3_Seg08 0.000000 0.000000 0.000000 0.000000 0.000000 0.000000 10.000000 
Rope3_Seg09 0.000000 0.000000 0.000000 0.000000 0.000000 0.000000 10.000000 
R_rear_hand01 0.000000 0.000000 0.000000 0.000000 0.000000 0.000000 10.000000 
R_rear_hand02 0.000000 0.000000 0.000000 0.000000 0.000000 0.000000 10.000000 
R_rear_hand03 0.000000 0.000000 0.000000 0.000000 0.000000 0.000000 10.000000 
Rope4_Seg01 0.000000 0.000000 0.000000 0.000000 0.000000 0.000000 10.000000 
Rope4_Seg02 0.000000 0.000000 0.000000 0.000000 0.000000 0.000000 10.000000 
Rope4_Seg03 0.000000 0.000000 0.000000 0.000000 0.000000 0.000000 10.000000 
Rope4_Seg04 0.000000 0.000000 0.000000 0.000000 0.000000 0.000000 10.000000 
Rope4_Seg05 0.000000 0.000000 0.000000 0.000000 0.000000 0.000000 10.000000 
Rope4_Seg06 0.000000 0.000000 0.000000 0.000000 0.000000 0.000000 10.000000 
Rope4_Seg07 0.000000 0.000000 0.000000 0.000000 0.000000 0.000000 10.000000 
Rope4_Seg08 0.000000 0.000000 0.000000 0.000000 0.000000 0.000000 10.000000 
Rope4_Seg09 0.000000 0.000000 0.000000 0.000000 0.000000 0.000000 10.000000 
L_rear_hand01 0.000000 0.000000 0.000000 0.000000 0.000000 0.000000 10.000000 
L_rear_hand02 0.000000 0.000000 0.000000 0.000000 0.000000 0.000000 10.000000 
L_rear_hand03 0.000000 0.000000 0.000000 0.000000 0.000000 0.000000 10.000000 
#Beginning of Data. Separated by tabs
#Fr	Tx	Ty	Tz	Rx	Ry	Rz	SF
[MASTER]
42 -353.107300 -1117.133057 -0.013837 0.001660 0.001660 0.001660 1171.610474
43 -355.733795 -1177.486206 0.000000 0.001660 0.001660 0.001660 1230.048828
[root]
42 -16.502264 -62.822109 1384.695435 -62.220688 -42.295849 -106.615570 1386.218018
43 -16.502264 -62.822109 1363.215210 -63.194538 -42.881142 -106.371895 1364.761841
[chest]
42 -84.512650 -34.090519 0.000000 4.323375 -0.610279 -176.470566 91.129311
43 -84.512650 -34.090519 0.000000 3.866169 -0.541120 -176.778198 91.129311
[L_mid_tent01]
42 27.299465 22.177591 -249.918274 61.540203 51.326248 143.985977 252.381165
43 27.299467 22.177593 -249.918274 56.766418 52.378513 138.254303 252.381165
[R_mid_tent01]
42 23.228794 24.509907 226.238495 166.010574 -28.435648 74.238441 228.744751
43 23.228794 24.509907 226.238495 166.502945 -28.656851 73.207672 228.744751
[spine01]
42 -0.361383 -0.195265 0.000000 0.001845 0.001451 13.654368 0.410763
43 -0.361383 -0.195265 0.000000 0.001845 0.001451 13.654368 0.410763
[Bip01_Neck]
42 165.484543 71.581718 0.000119 176.643677 -1.657967 43.431911 180.302734
43 165.484543 71.581718 0.000119 176.643677 -1.657967 43.431911 180.302734
[L_humerus]
42 -13.983130 -135.272980 -120.471481 -172.376877 13.691745 -79.780571 181.680161
43 -13.983130 -135.272980 -120.471481 -173.057663 12.016926 -80.700035 181.680161
[R_humerus]
42 -13.983309 -135.273102 125.287651 174.018143 -1.928275 -81.163826 184.909012
43 -13.983309 -135.273102 125.287651 175.654099 -0.550463 -83.761108 184.909012
[weapon_bone]
42 235.964890 -300.705902 0.000000 0.000000 -89.951546 -128.212341 382.234833
43 235.964890 -300.705902 0.000000 0.000000 -89.951546 -128.212341 382.234833
[Bip01_Head]
42 213.444412 185.715546 11.776990 -10.741447 -8.692554 14.949367 283.173920
43 213.444412 185.715546 11.776990 -11.654357 -9.026757 11.551621 283.173920
[eye_left_bone]
42 -24.626970 125.451866 -64.772606 0.000000 -90.000000 -99.840431 143.318359
43 -24.626970 125.451866 -64.772606 0.000000 -90.000000 -99.840431 143.318359
[eye_right_bone]
42 -24.626970 125.451866 64.327362 0.000000 -89.965736 80.156380 143.117676
43 -24.626970 125.451866 64.327362 0.000000 -89.965736 80.156380 143.117676
[L_forearm]
42 322.776093 0.000000 -0.000119 0.000195 -0.002339 -99.511993 322.776093
43 322.776093 0.000000 -0.000119 0.000187 -0.002340 -99.116165 322.776093
[L_front_hand]
42 241.149185 -0.042021 -3.300071 149.893951 -1.837326 -27.423067 241.171753
43 241.149185 -0.042021 -3.300071 149.893951 -1.837326 -27.423067 241.171753
[L_weapon_bone]
42 156.183838 0.000000 0.000000 0.000014 0.000007 0.000001 156.183838
43 156.183838 0.000000 0.000000 0.000014 0.000007 0.000001 156.183838
[L_front_hand01_01]
42 86.095154 20.947098 -0.655860 -0.297761 -0.518820 67.608261 88.609184
43 86.095154 20.947098 -0.655860 -0.359293 -0.482717 74.580368 88.609184
[L_front_hand02_01]
42 86.935165 -11.437475 24.513514 143.743973 -55.870316 -48.810265 91.046425
43 86.935165 -11.437475 24.513514 153.165390 -59.530972 -59.940819 91.046425
[L_front_hand03_01]
42 86.637497 -14.123976 -20.424902 -143.978928 54.089474 -50.752655 90.126129
43 86.637497 -14.123976 -20.424902 -152.778976 57.759407 -61.363029 90.126129
[L_front_hand01_02]
42 71.020905 -0.000179 0.000030 0.001407 0.001879 -16.339647 71.020905
43 71.020905 -0.000179 0.000030 0.001534 0.001777 -8.378850 71.020905
[L_front_hand02_02]
42 71.020927 -0.000119 0.000060 0.001407 0.001879 -16.339647 71.020927
43 71.020927 -0.000119 0.000060 0.001534 0.001777 -8.378850 71.020927
[L_front_hand03_02]
42 71.020905 -0.000060 0.000060 0.001407 0.001879 -16.339647 71.020905
43 71.020905 -0.000060 0.000060 0.001534 0.001777 -8.378850 71.020905
[R_forearm]
42 322.776428 -0.000060 0.000030 0.137483 -0.163010 -41.451279 322.776428
43 322.776428 -0.000060 0.000030 0.136058 -0.164201 -40.453503 322.776428
[R_front_hand]
42 238.847015 -0.006795 2.210259 -8.879457 -10.642941 -26.315098 238.857239
43 238.847015 -0.006795 2.210259 -8.879457 -10.642941 -26.315098 238.857239
[R_weapon_bone]
42 155.664093 0.002503 -0.000030 0.003487 0.001180 -90.988930 155.664078
43 155.664093 0.002503 -0.000030 0.003487 0.001180 -90.988930 155.664078
[R_front_hand01_01]
42 87.624611 14.231146 22.918642 -145.539246 -56.711700 51.071224 91.683487
43 87.624611 14.231146 22.918642 -154.631760 -59.950157 61.744045 91.683487
[R_front_hand02_01]
42 89.356956 14.367283 -19.491137 146.038528 55.093983 53.517178 92.579636
43 89.356956 14.367283 -19.491137 154.601013 58.302380 63.742462 92.579636
[R_front_hand03_01]
42 87.286232 -22.307278 -0.143439 0.112108 -0.437554 -69.313698 90.091743
43 87.286232 -22.307278 -0.143439 0.162147 -0.423171 -75.766808 90.091743
[R_front_hand01_02]
42 71.020905 0.000060 0.000119 0.002048 0.001147 31.489717 71.020905
43 71.020905 0.000060 0.000119 0.001865 0.001425 15.209652 71.020905
[R_front_hand02_02]
42 71.020844 -0.000030 -0.000119 0.002048 0.001147 31.489717 71.020836
43 71.020844 -0.000030 -0.000119 0.001865 0.001425 15.209652 71.020836
[R_front_hand03_02]
42 71.020905 0.000000 0.000030 0.002048 0.001147 31.489717 71.020905
43 71.020905 0.000000 0.000030 0.001865 0.001425 15.209652 71.020905
[null_rope01_connect]
42 328.732483 0.000000 -0.000238 -114.441299 -29.369984 126.924385 328.732483
43 328.732483 0.000000 -0.000238 -112.354820 -30.405691 129.307388 328.732483
[Rope1_Seg01]
42 -0.000027 0.000016 0.000066 132.215591 32.009285 -175.823715 0.000073
43 -0.000027 0.000016 0.000064 128.514908 31.318777 176.888275 0.000071
[Rope1_Seg02]
42 139.999863 -0.000179 0.000000 2.618318 -15.826718 8.321458 139.999863
43 139.999863 -0.000179 0.000000 1.411223 -14.848893 8.705074 139.999863
[Rope1_Seg03]
42 139.999924 0.000060 -0.000060 -1.792124 -25.750883 15.237850 139.999924
43 139.999924 0.000060 -0.000060 -1.999797 -22.350212 14.047507 139.999924
[Rope1_Seg04]
42 139.999924 -0.000060 -0.000119 -5.151400 -22.051538 12.915236 139.999924
43 139.999924 -0.000060 -0.000119 -4.729048 -20.194040 11.114365 139.999924
[Rope1_Seg05]
42 139.999832 0.000119 -0.000060 -2.409287 -13.637911 14.665671 139.999832
43 139.999832 0.000119 -0.000060 -2.665118 -12.744883 12.357844 139.999832
[Rope1_Seg06]
42 139.999954 0.000119 -0.000060 1.050315 -11.114114 14.579021 139.999954
43 139.999954 0.000119 -0.000060 1.313382 -11.335771 15.290976 139.999954
[Rope1_Seg07]
42 139.999985 0.000060 0.000000 0.175524 -6.436543 7.491824 139.999985
43 139.999985 0.000060 0.000000 1.174969 -7.136342 8.743098 139.999985
[Rope1_Seg09]
42 121.602913 0.000119 -0.000089 -89.793175 -1.359789 0.847147 121.602913
43 121.602913 0.000119 -0.000089 -89.793175 -1.359789 0.847147 121.602913
[L_mid_hand01]
42 103.859421 1.038730 8.195221 130.544373 -67.584534 -38.866943 104.187431
43 103.859421 1.038730 8.195221 130.544373 -67.584534 -38.866943 104.187431
[L_mid_hand02]
42 105.572853 -4.139662 -10.864139 -168.923172 43.409309 -73.498886 106.211075
43 105.572853 -4.139662 -10.864139 -168.923172 43.409309 -73.498886 106.211075
[L_mid_hand03]
42 104.641464 17.579376 -3.913581 -6.012627 17.808174 74.893669 106.179977
43 104.641464 17.579376 -3.913581 -6.012627 17.808174 74.893669 106.179977
[null_rope02_connect]
42 328.732849 0.000179 -0.000119 -118.217377 50.441826 -8.569669 328.732849
43 328.732849 0.000179 -0.000119 -117.184052 51.202648 -8.637692 328.732849
[Rope2_Seg01]
42 0.000060 0.000066 0.000000 23.465071 0.328395 -42.309727 0.000089
43 0.000060 0.000064 0.000000 40.063908 3.533988 -47.105549 0.000088
[Rope2_Seg02]
42 139.999741 -0.000060 -0.000119 -86.788780 27.571905 16.012501 139.999756
43 139.999741 -0.000060 -0.000119 -119.177200 34.271118 7.593582 139.999756
[Rope2_Seg03]
42 140.000107 0.000030 0.000000 -28.577639 -19.016819 40.521282 140.000107
43 140.000107 0.000030 0.000000 -20.900988 -31.287300 34.764095 140.000107
[Rope2_Seg04]
42 139.999802 0.000000 -0.000060 -3.190388 -15.760006 13.166131 139.999802
43 139.999802 0.000000 -0.000060 -3.535518 -14.508986 15.252313 139.999802
[Rope2_Seg05]
42 139.999985 -0.000060 0.000119 -0.416382 -8.031099 5.174082 139.999985
43 139.999985 -0.000060 0.000119 -0.246674 -6.091147 11.738455 139.999985
[Rope2_Seg06]
42 139.999893 -0.000030 -0.000119 -0.069235 -4.732572 3.153110 139.999893
43 139.999893 -0.000030 -0.000119 0.476868 -3.567461 5.575460 139.999893
[Rope2_Seg07]
42 139.999893 0.000060 -0.000060 0.025598 -2.887796 1.994880 139.999893
43 139.999893 0.000060 -0.000060 0.428111 -2.147467 3.120266 139.999893
[Rope2_Seg09]
42 121.338966 0.000089 -0.000060 33.793236 -1.359788 -0.847141 121.338966
43 121.338966 0.000089 -0.000060 33.793236 -1.359788 -0.847141 121.338966
[R_mid_hand01]
42 104.680779 11.144459 -10.335981 -16.212059 45.237240 70.462852 105.778534
43 104.680779 11.144459 -10.335981 -16.212063 45.237247 70.462852 105.778534
[R_mid_hand02]
42 104.070427 2.443552 8.231699 49.067368 -67.749771 39.286453 104.424065
43 104.070427 2.443552 8.231699 49.067371 -67.749794 39.286461 104.424065
[R_mid_hand03]
42 106.028137 -11.221827 -5.996406 -177.101105 15.551026 -76.585571 106.788818
43 106.028137 -11.221827 -5.996406 -177.101105 15.551026 -76.585571 106.788818
[spine02]
42 129.756927 0.001550 0.000119 -1.023899 -3.926965 6.770993 129.756927
43 129.756927 0.001550 0.000119 -1.023899 -3.926965 6.770993 129.756927
[spine03]
42 78.613846 0.087372 -4.898873 1.040681 4.146420 4.212376 78.766380
43 78.613846 0.087372 -4.898873 1.040680 4.146419 4.212375 78.766380
[pelvis]
42 169.435242 0.051022 0.000000 0.019518 -0.190233 -10.721436 169.435257
43 169.435242 0.051022 0.000000 0.019518 -0.190233 -10.721436 169.435257
[null_rope03_connect]
42 -1.257226 -2.466202 137.391083 7.362819 -69.887764 114.055099 137.418976
43 -1.257226 -2.466202 137.391083 6.856153 -70.781540 114.969460 137.418976
[null_rope04_connect]
42 -1.259640 -2.480268 -137.844437 7.362819 -69.887764 114.055099 137.872513
43 -1.259640 -2.480268 -137.844437 6.856153 -70.781540 114.969460 137.872513
[Rope3_Seg01]
42 -0.000023 0.000141 -0.000087 -143.063919 -53.918892 -70.178169 0.000167
43 -0.000023 0.000146 -0.000089 -146.014526 -54.397724 -66.702591 0.000173
[Rope3_Seg02]
42 139.999924 -0.000119 0.000060 -22.175835 4.974381 -41.211868 139.999924
43 139.999924 -0.000119 0.000060 -22.974312 3.300059 -41.186371 139.999924
[Rope3_Seg03]
42 139.999924 -0.000119 0.000119 -27.309206 8.441918 -21.903734 139.999924
43 139.999924 -0.000119 0.000119 -31.480131 8.539907 -22.656919 139.999924
[Rope3_Seg04]
42 139.999924 0.000119 0.000000 -34.052364 25.210653 -14.012338 139.999924
43 139.999924 0.000119 0.000000 -37.788960 28.191406 -14.269902 139.999924
[Rope3_Seg05]
42 139.999924 -0.000238 0.000060 -10.385766 22.865135 3.003880 139.999924
43 139.999924 -0.000238 0.000060 -8.599460 22.800179 5.235012 139.999924
[Rope3_Seg06]
42 139.999893 -0.000119 -0.000060 -1.513388 7.381794 2.179173 139.999893
43 139.999893 -0.000119 -0.000060 -1.063382 6.906003 2.553916 139.999893
[Rope3_Seg07]
42 139.999771 0.000060 -0.000119 -0.327515 4.101588 1.311319 139.999771
43 139.999771 0.000060 -0.000119 -0.129685 3.896734 1.521448 139.999771
[Rope3_Seg08]
42 139.999985 -0.000060 0.000000 0.130953 2.335370 0.761184 139.999985
43 139.999985 -0.000060 0.000000 0.236142 2.210788 0.871883 139.999985
[Rope3_Seg09]
42 90.185997 -0.000179 -0.000060 89.793228 -1.359877 -0.847183 90.185997
43 90.185997 -0.000179 -0.000060 89.793228 -1.359877 -0.847183 90.185997
[R_rear_hand01]
42 103.366196 -6.073594 -10.757982 -177.714203 24.565960 -73.910950 104.101845
43 103.366196 -6.073594 -10.757982 -177.714203 24.565960 -73.910950 104.101845
[R_rear_hand02]
42 100.509819 12.039542 -7.992327 -12.874829 36.868488 72.167213 101.543350
43 100.509819 12.039542 -7.992327 -12.874829 36.868488 72.167213 101.543350
[R_rear_hand03]
42 101.539970 5.215704 5.435467 71.484581 -71.816628 21.513813 101.819031
43 101.539970 5.215704 5.435467 71.484589 -71.816643 21.513828 101.819031
[Rope4_Seg01]
42 0.000000 0.000000 0.000000 44.305557 -10.900774 -173.908844 0.000000
43 0.000000 0.000000 0.000000 62.321842 -17.202000 -170.195816 0.000000
[Rope4_Seg02]
42 139.999985 0.000060 0.000119 -74.191124 -0.054196 -27.248358 139.999985
43 139.999985 0.000060 0.000119 -92.161530 -11.266231 -28.481113 139.999985
[Rope4_Seg03]
42 139.999924 0.000000 -0.000238 -20.096712 29.892607 -5.866417 139.999924
43 139.999924 0.000000 -0.000238 -29.508688 35.245377 -11.097116 139.999924
[Rope4_Seg04]
42 139.999985 0.000000 0.000119 -7.210979 15.941714 -4.722588 139.999985
43 139.999985 0.000000 0.000119 -3.982695 17.498945 0.289772 139.999985
[Rope4_Seg05]
42 139.999802 -0.000060 -0.000119 -2.238750 3.972495 -3.496633 139.999802
43 139.999802 -0.000060 -0.000119 -1.118768 4.615239 -1.271006 139.999802
[Rope4_Seg06]
42 139.999924 0.000000 0.000060 -0.622662 2.366733 -0.768056 139.999924
43 139.999924 0.000000 0.000060 -0.276682 2.751607 -0.054447 139.999924
[Rope4_Seg07]
42 139.999802 0.000000 0.000000 -0.286519 1.533726 -0.467108 139.999802
43 139.999802 0.000000 0.000000 -0.072599 1.792070 -0.004415 139.999802
[Rope4_Seg08]
42 139.999924 0.000000 0.000119 -1.692147 0.927442 -0.279137 139.999924
43 139.999924 0.000000 0.000119 -1.566223 1.084906 0.001671 139.999924
[Rope4_Seg09]
42 90.185791 0.000060 0.000060 -135.617828 2.228885 0.850567 90.185791
43 90.185791 0.000060 0.000060 -135.617828 2.228885 0.850567 90.185791
[L_rear_hand01]
42 101.696655 -8.392275 -7.654577 -12.874829 -36.868488 107.832764 102.329041
43 101.696655 -8.392275 -7.654577 -12.874834 -36.868492 107.832779 102.329041
[L_rear_hand02]
42 102.726799 -1.568258 5.773216 71.484581 71.816628 158.486160 102.900848
43 102.726799 -1.568258 5.773216 71.484573 71.816628 158.486160 102.900848
[L_rear_hand03]
42 104.552910 9.721220 -10.420293 -177.714203 -24.565960 -106.089035 105.519653
43 104.552910 9.721220 -10.420293 -177.714203 -24.565960 -106.089035 105.519653
